<svg width="25" height="24" viewBox="0 0 25 24" fill="none" xmlns="http://www.w3.org/2000/svg">
<g clip-path="url(#clip0_67_1004)">
<path d="M12.1426 12.75C13.7726 12.75 15.2126 13.14 16.3826 13.65C17.4626 14.13 18.1426 15.21 18.1426 16.38V18H6.14258V16.39C6.14258 15.21 6.82258 14.13 7.90258 13.66C9.07258 13.14 10.5126 12.75 12.1426 12.75ZM4.14258 13C5.24258 13 6.14258 12.1 6.14258 11C6.14258 9.9 5.24258 9 4.14258 9C3.04258 9 2.14258 9.9 2.14258 11C2.14258 12.1 3.04258 13 4.14258 13ZM5.27258 14.1C4.90258 14.04 4.53258 14 4.14258 14C3.15258 14 2.21258 14.21 1.36258 14.58C0.622578 14.9 0.142578 15.62 0.142578 16.43V18H4.64258V16.39C4.64258 15.56 4.87258 14.78 5.27258 14.1ZM20.1426 13C21.2426 13 22.1426 12.1 22.1426 11C22.1426 9.9 21.2426 9 20.1426 9C19.0426 9 18.1426 9.9 18.1426 11C18.1426 12.1 19.0426 13 20.1426 13ZM24.1426 16.43C24.1426 15.62 23.6626 14.9 22.9226 14.58C22.0726 14.21 21.1326 14 20.1426 14C19.7526 14 19.3826 14.04 19.0126 14.1C19.4126 14.78 19.6426 15.56 19.6426 16.39V18H24.1426V16.43ZM12.1426 6C13.8026 6 15.1426 7.34 15.1426 9C15.1426 10.66 13.8026 12 12.1426 12C10.4826 12 9.14258 10.66 9.14258 9C9.14258 7.34 10.4826 6 12.1426 6Z" fill="#323232"/>
</g>
<defs>
<clipPath id="clip0_67_1004">
<rect width="24" height="24" fill="white" transform="translate(0.142578)"/>
</clipPath>
</defs>
</svg>
